<svg width="61" height="58" viewBox="0 0 61 58" fill="none" xmlns="http://www.w3.org/2000/svg">
<path d="M12.7041 42.8734C11.9234 42.8574 11.1783 42.4578 10.7966 41.7966L9.06748 38.8017C8.66327 38.1016 8.68971 37.2566 9.08865 36.6113L25.7137 8.3952C26.074 7.77226 26.9543 7.78261 27.3136 8.40493L31.8048 16.1839C32.1417 16.7673 32.1475 17.49 31.7646 18.0741L21.6856 33.4873L40.2305 32.7375C40.8892 32.7202 41.5507 33.0643 41.8876 33.6477L46.3788 41.4267C46.7381 42.049 46.2683 42.8388 45.5486 42.8395L12.643 42.8568L12.7041 42.8734Z" fill="#003E29"/>
<path d="M52.0335 20.8397C52.301 21.3031 52.2179 21.8145 51.8904 22.0036L16.5742 42.3934C16.2249 42.5951 15.7455 42.3698 15.4947 41.9353L11.4311 34.8971C11.1636 34.4336 11.2467 33.9222 11.5742 33.7332L46.8686 13.3559C47.2179 13.1543 47.6972 13.3795 47.9481 13.814L52.0116 20.8523L52.0335 20.8397Z" fill="#003E29"/>
</svg>
