<svg width="61" height="58" viewBox="0 0 61 58" fill="none" xmlns="http://www.w3.org/2000/svg">
<path d="M47.2974 14.8629C48.0781 14.8789 48.8231 15.2785 49.2049 15.9397L50.934 18.9346C51.3382 19.6348 51.3118 20.4798 50.9128 21.125L34.2878 49.3411C33.9274 49.9641 33.0471 49.9537 32.6878 49.3314L28.1966 41.5524C27.8598 40.969 27.854 40.2463 28.2368 39.6623L38.3159 24.249L19.7709 24.9989C19.1123 25.0161 18.4507 24.672 18.1139 24.0886L13.6227 16.3096C13.2634 15.6873 13.7332 14.8975 14.4528 14.8969L47.3584 14.8795L47.2974 14.8629Z" fill="#003E29"/>
<path d="M7.968 36.8964C7.70044 36.433 7.78358 35.9216 8.11106 35.7325L43.4273 15.3427C43.7766 15.141 44.256 15.3663 44.5068 15.8007L48.5703 22.839C48.8379 23.3024 48.7548 23.8139 48.4273 24.0029L13.1329 44.3802C12.7836 44.5818 12.3042 44.3566 12.0534 43.9221L7.98983 36.8838L7.968 36.8964Z" fill="#003E29"/>
</svg>
